<svg width="274" height="261" viewBox="0 0 274 261" fill="none" xmlns="http://www.w3.org/2000/svg">
<g filter="url(#filter0_i_7_2)">
<path d="M137 234.9H220.5C234.914 234.9 246.6 246.585 246.6 261V261H137C61.3349 261 0 202.575 0 130.5C0 58.4248 61.3349 0 137 0C212.665 0 274 58.4248 274 130.5C274.044 158.743 264.425 186.231 246.6 208.8V208.8C228.625 208.8 219.886 192.931 229.056 177.471C232.739 171.261 235.986 163.003 238.261 148.955C242.171 124.807 244.13 97.5738 230.897 76.6421C217.664 55.7103 197.143 39.8629 172.907 31.8595C148.671 23.856 122.255 24.2035 98.2605 32.8416C74.2658 41.4796 54.2119 57.8609 41.591 79.1328C28.97 100.405 24.5817 125.22 29.19 149.256C33.7984 173.293 47.1116 195.028 66.8112 210.677C86.5108 226.327 111.349 234.898 137 234.9ZM137 104.4C129.733 104.4 122.764 101.65 117.625 96.7555C112.487 91.8608 109.6 85.2222 109.6 78.3C109.6 71.3779 112.487 64.7392 117.625 59.8445C122.764 54.9498 129.733 52.2 137 52.2C144.267 52.2 151.236 54.9498 156.375 59.8445C161.513 64.7392 164.4 71.3779 164.4 78.3C164.4 85.2222 161.513 91.8608 156.375 96.7555C151.236 101.65 144.267 104.4 137 104.4ZM82.2 156.6C74.933 156.6 67.9637 153.85 62.8252 148.955C57.6867 144.061 54.8 137.422 54.8 130.5C54.8 123.578 57.6867 116.939 62.8252 112.045C67.9637 107.15 74.933 104.4 82.2 104.4C89.4669 104.4 96.4362 107.15 101.575 112.045C106.713 116.939 109.6 123.578 109.6 130.5C109.6 137.422 106.713 144.061 101.575 148.955C96.4362 153.85 89.4669 156.6 82.2 156.6ZM191.8 156.6C184.533 156.6 177.564 153.85 172.425 148.955C167.287 144.061 164.4 137.422 164.4 130.5C164.4 123.578 167.287 116.939 172.425 112.045C177.564 107.15 184.533 104.4 191.8 104.4C199.067 104.4 206.036 107.15 211.175 112.045C216.313 116.939 219.2 123.578 219.2 130.5C219.2 137.422 216.313 144.061 211.175 148.955C206.036 153.85 199.067 156.6 191.8 156.6ZM137 208.8C129.733 208.8 122.764 206.05 117.625 201.155C112.487 196.261 109.6 189.622 109.6 182.7C109.6 175.778 112.487 169.139 117.625 164.245C122.764 159.35 129.733 156.6 137 156.6C144.267 156.6 151.236 159.35 156.375 164.245C161.513 169.139 164.4 175.778 164.4 182.7C164.4 189.622 161.513 196.261 156.375 201.155C151.236 206.05 144.267 208.8 137 208.8Z" fill="#EAEAEA"/>
</g>
<defs>
<filter id="filter0_i_7_2" x="0" y="0" width="274" height="263.71" filterUnits="userSpaceOnUse" color-interpolation-filters="sRGB">
<feFlood flood-opacity="0" result="BackgroundImageFix"/>
<feBlend mode="normal" in="SourceGraphic" in2="BackgroundImageFix" result="shape"/>
<feColorMatrix in="SourceAlpha" type="matrix" values="0 0 0 0 0 0 0 0 0 0 0 0 0 0 0 0 0 0 127 0" result="hardAlpha"/>
<feOffset dy="2.70965"/>
<feGaussianBlur stdDeviation="1.35482"/>
<feComposite in2="hardAlpha" operator="arithmetic" k2="-1" k3="1"/>
<feColorMatrix type="matrix" values="0 0 0 0 0 0 0 0 0 0 0 0 0 0 0 0 0 0 0.25 0"/>
<feBlend mode="normal" in2="shape" result="effect1_innerShadow_7_2"/>
</filter>
</defs>
</svg>
