<svg width="192" height="275" viewBox="0 0 192 275" fill="none" xmlns="http://www.w3.org/2000/svg">
<path fill-rule="evenodd" clip-rule="evenodd" d="M126.941 41.7533C130.673 37.3727 133.199 32.0043 132.777 25.9889C131.561 8.65671 107.434 12.4696 102.741 21.2174C98.0477 29.9652 98.6054 52.1547 104.671 53.7182C107.09 54.3417 112.243 52.8143 117.487 49.6532L114.196 72.9423H133.633L126.941 41.7533Z" fill="#B28B67"/>
<path fill-rule="evenodd" clip-rule="evenodd" d="M141.251 20.2194C141.879 19.5972 142.222 18.7092 142.518 17.866C142.826 16.9901 143.124 16.1051 143.329 15.1934C143.737 13.3718 143.741 11.2769 142.441 9.86236C141.399 8.72807 139.835 8.21931 138.392 8.10874C137.43 8.035 136.443 8.16966 135.521 8.47268C134.607 8.77328 133.818 9.37238 132.932 9.74422C132.898 7.78114 132.562 5.72708 131.566 4.0509C130.607 2.43815 129.079 1.53313 127.339 1.2937C125.553 1.04798 123.79 1.46592 122.191 2.33056C121.79 2.54711 121.394 2.77397 121.014 3.03072C120.697 3.24574 120.366 3.50467 119.993 3.59211C119.578 3.6897 119.372 3.44963 119.101 3.14637C118.785 2.79081 118.428 2.47764 118.05 2.20001C116.38 0.972632 114.19 0.467982 112.255 1.20368C111.364 1.54264 110.497 2.11829 109.892 2.91153C109.353 3.61862 108.969 4.74027 108.225 5.23291C107.909 5.44204 107.686 5.16497 107.399 4.96019C106.967 4.6525 106.555 4.31298 106.118 4.01367C105.504 3.59316 104.84 3.27862 104.128 3.11397C103.086 2.87293 101.647 2.92942 101.349 4.29396C101.237 4.80651 101.323 5.35468 101.359 5.8711C101.408 6.5802 101.46 7.28906 101.522 7.99712C101.568 8.53473 101.627 9.05397 101.729 9.58191C101.783 9.86333 101.952 10.388 101.832 10.6698C101.681 11.022 100.985 10.8218 100.688 10.834C100.1 10.8583 99.5104 10.9613 98.9673 11.2122C98.5465 11.4068 98.104 11.6929 97.9263 12.1753C97.8171 12.4716 97.8459 12.776 97.8975 13.0809C97.9594 13.4467 97.8886 13.6408 97.8424 14.01C97.0536 13.6215 94.32 12.7585 93.9761 14.1722C93.8616 14.6429 94.1223 15.1748 94.3213 15.5718C94.6702 16.2681 95.1277 16.9045 95.5954 17.5114C96.571 18.7776 97.7356 19.8696 98.9887 20.8036C97.5206 21.4563 97.1374 23.3815 98.4085 24.5285C98.9697 25.0349 99.7243 25.1477 100.432 25.1153C100.691 25.1034 101.065 25.0038 101.269 25.0489C101.379 25.0732 101.496 25.1662 101.648 25.1766C102.647 25.245 103.775 25.0043 104.752 24.7826C106.492 24.3875 108.14 23.563 109.485 22.3073C109.83 21.9852 110.115 21.7997 110.58 21.8045C110.987 21.8086 111.386 21.9202 111.793 21.9305C112.869 21.958 113.84 21.4319 114.839 21.0818C114.9 22.4317 115.284 23.9185 115.837 25.133C116.287 26.1234 117.227 26.2673 118.151 26.3542C121.106 26.6322 124.072 26.3219 127.03 26.326C124.166 26.9734 121.207 27.2402 118.368 28.0021C117.085 28.3463 118.065 29.2111 118.613 29.8106C119.517 30.7979 120.189 32.0211 120.654 33.3097C122.056 31.4834 124.532 30.28 126.726 30.8411C129.15 31.4609 130.857 34.7392 129.307 37.096C128.407 38.4642 126.782 38.9924 125.429 39.5802C126.484 40.677 126.74 42.2969 127.375 43.6615C127.688 44.3344 128.127 45.0952 128.828 45.3297C129.087 45.4165 129.391 45.424 129.595 45.6352C129.848 45.8967 129.909 46.1891 130.232 46.4138C131.522 47.3109 133.538 47.2418 134.682 46.0711C135.716 45.0123 135.447 43.3368 134.583 42.2634C135.958 41.6902 138.463 40.9531 137.917 38.8109C140.896 38.613 148.131 33.7807 144.132 30.2496C146.326 29.0093 148.342 25.978 146.933 23.3059C145.847 21.2483 143.323 20.3285 141.251 20.2194Z" fill="#191847"/>
<path fill-rule="evenodd" clip-rule="evenodd" d="M168.764 174.18H106.196L97.9976 274.607H191.136L168.764 174.18Z" fill="#C5CFD6"/>
<path fill-rule="evenodd" clip-rule="evenodd" d="M168.764 174.18H149.521L138.003 274.607H191.136L168.764 174.18Z" fill="black" fill-opacity="0.1"/>
<path fill-rule="evenodd" clip-rule="evenodd" d="M34.8634 156.974C28.1925 152.968 17.0002 158.115 17.0079 163.844C17.0309 180.985 32.674 261.771 33.4907 266.878C34.3075 271.985 43.0569 273.333 43.5664 266.894C44.3771 256.649 45.8833 221.18 44.3763 204.763C43.7542 197.987 43.0843 191.533 42.4248 185.775C50.6333 200.599 63.3281 221.822 80.5094 249.446L89.8366 245.185C82.5122 221.053 76.5063 204.017 71.819 194.076C63.793 177.054 56.2674 162.478 53.1001 157.343C48.1179 149.267 39.4457 152.085 34.8634 156.974Z" fill="#B28B67"/>
<path fill-rule="evenodd" clip-rule="evenodd" d="M89.1698 231.784L57.1566 155.946C49.4874 143.61 27.9851 158.457 30.6004 165.612C36.5381 181.857 66.7357 234.447 68.5048 239.287L89.1698 231.784Z" fill="#1F28CF"/>
<path fill-rule="evenodd" clip-rule="evenodd" d="M90.9477 240.403C92.9418 242.044 94.239 243.385 94.8394 244.425C95.5697 245.69 96.4246 247.657 97.4041 250.327C95.9368 251.174 82.7503 258.787 57.8444 273.167C54.8542 270.362 54.3883 268.184 56.4467 266.635C58.5051 265.085 60.2038 263.778 61.5427 262.714L75.1972 243.901C75.4599 243.539 75.9664 243.458 76.3283 243.721C76.3345 243.726 76.3407 243.73 76.3467 243.735L79.1839 245.92C81.7866 245.692 83.729 245.209 85.0109 244.469C86.0524 243.867 87.2479 242.616 88.5974 240.715L88.5974 240.715C89.1153 239.986 90.1264 239.814 90.8559 240.332C90.8873 240.355 90.918 240.378 90.9477 240.403Z" fill="#E4E4E4"/>
<path fill-rule="evenodd" clip-rule="evenodd" d="M45.6149 262.784C46.521 265.202 46.9741 267.012 46.9741 268.213C46.9741 269.674 46.7308 271.805 46.2441 274.607C44.5499 274.607 29.3233 274.607 0.564476 274.607C-0.622574 270.682 0.0626602 268.564 2.62018 268.251C5.17771 267.938 7.30228 267.655 8.99392 267.403L30.2254 257.938C30.6339 257.756 31.1128 257.939 31.2949 258.348C31.298 258.355 31.301 258.362 31.3039 258.369L32.6687 261.68C35.0363 262.784 36.9602 263.337 38.4404 263.337C39.6431 263.337 41.304 262.851 43.4231 261.88L43.4231 261.879C44.2363 261.507 45.1977 261.864 45.5705 262.677C45.5866 262.712 45.6014 262.748 45.6149 262.784Z" fill="#E4E4E4"/>
<path fill-rule="evenodd" clip-rule="evenodd" d="M14.7641 169.671C14.7641 191.187 24.9824 241.377 24.9889 246.115L46.974 246.132C43.7561 201.348 42.615 178.715 43.5508 178.232C44.9546 177.509 101.095 183.838 117.932 183.838C142.212 183.838 152.256 168.527 153.071 140.164H104.974C95.1808 141.212 44.0998 151.515 25.1294 155.057C17.0078 156.573 14.7641 163.744 14.7641 169.671Z" fill="#2B44FF"/>
<path fill-rule="evenodd" clip-rule="evenodd" d="M97.4808 89.7074L69.3694 74.3109C64.6947 68.7596 60.0887 64.4483 55.5516 61.3769C54.1652 60.7981 51.7408 60.4477 54.0081 64.472C56.2754 68.4963 58.4793 72.8312 57.3242 74.071C56.1691 75.3108 53.2887 73.5788 51.9107 75.6388C50.992 77.0121 55.9129 79.1815 66.6734 82.147L87.0997 100.849L97.4808 89.7074ZM53.4532 102.698L41.1051 95.9144C39.3725 89.3216 37.3013 86.0045 34.8917 85.9632C33.0406 85.1019 36.2643 93.4325 32.7551 92.7101C29.246 91.9877 20.6813 85.6178 19.2055 86.9111C17.0222 88.8245 18.969 94.6998 21.2627 97.6224C25.5497 103.085 29.0991 104.953 37.8721 107.399C42.459 108.678 47.4183 111.241 52.75 115.09L53.4532 102.698Z" fill="#997659"/>
<path fill-rule="evenodd" clip-rule="evenodd" d="M111.171 86.2776C101.325 86.1735 88.1946 84.0939 74.1846 75.2009L68.6825 87.4708C78.3463 97.0613 91.9345 104.941 103.816 104.607C113.179 104.344 117.964 93.019 111.171 86.2776Z" fill="#2026A2"/>
<path fill-rule="evenodd" clip-rule="evenodd" d="M97.9131 105.955C87.46 108.562 69.9306 105.487 45.3251 96.7318C39.222 109.358 36.4006 118.36 36.8611 123.737C57.969 134.763 76.0603 139.679 90.9651 140.003C90.4914 148.847 91.5679 157.262 95.184 164.951C102.618 180.759 146.15 166.119 160.787 169.001C169.953 139.233 152.23 127.136 152.216 108.089C152.2 87.2307 135.452 55.1246 132.988 55.1246H110.516C109.276 71.0545 103.035 88.6106 97.9131 105.955Z" fill="#1F28CF"/>
</svg>
