<svg width="100" height="100" viewBox="0 0 100 100" fill="none" xmlns="http://www.w3.org/2000/svg">
<g clip-path="url(#clip0_401_3568)">
<rect width="100" height="100" fill="#B5B3B3"/>
<path d="M90.9658 0H9.07184C4.07184 0 0.0188141 4.05303 0.0188141 9.05303V90.9091C0.0188141 95.947 4.07184 100 9.07184 100H90.9279C95.9279 100 99.9809 95.947 99.9809 90.947V9.05303C100.019 4.05303 95.9658 0 90.9658 0Z" fill="#EAEAEA"/>
<path d="M33.4279 31.4773C36.7612 31.4773 39.5264 28.8636 39.5264 25.4546C39.5264 22.0455 36.7234 19.4318 33.4279 19.4318C30.0946 19.4318 27.3294 22.0455 27.3294 25.4546C27.3294 28.8636 30.1325 31.4773 33.4279 31.4773V31.4773Z" fill="#546EF2"/>
<path d="M20.7764 63.7121C20.4355 65.2273 20.2461 66.8939 20.2461 68.2197C20.2461 73.5227 23.1249 77.0455 29.2234 77.0455C34.2991 77.0455 38.39 74.053 41.3446 69.1667L39.5264 76.4015H49.6021L55.3597 53.3333C56.7991 47.5 59.5643 44.4697 63.8067 44.4697C67.14 44.4697 69.1855 46.553 69.1855 49.9621C69.1855 50.947 69.1097 52.0455 68.7309 53.1818L65.7764 63.7879C65.3218 65.303 65.1325 66.8561 65.1325 68.2955C65.1325 73.3333 68.087 77.0076 74.2991 77.0076C79.6022 77.0076 83.8067 73.5985 86.1552 65.4167L82.2158 63.9015C80.2461 69.3939 78.5415 70.3788 77.1779 70.3788C75.8143 70.3788 75.0946 69.4697 75.0946 67.6894C75.0946 66.8939 75.284 65.9849 75.5491 64.8864L78.4279 54.5455C79.1476 52.1212 79.4128 49.9621 79.4128 47.9924C79.4128 40.2652 74.7537 36.25 69.0719 36.25C63.7688 36.25 58.39 41.0227 55.7006 46.0606L57.6703 37.0455H42.2915L40.1325 45H47.3294L42.8976 62.7273C39.4128 70.4546 33.0491 70.5682 32.2537 70.4167C30.9279 70.1136 30.0946 69.6212 30.0946 67.9167C30.0946 66.9318 30.284 65.5303 30.7385 63.7879L37.4809 37.0455H20.3976L18.2385 45H25.3218L20.7764 63.7121Z" fill="#546EF2"/>
</g>
<defs>
<clipPath id="clip0_401_3568">
<rect width="100" height="100" fill="white"/>
</clipPath>
</defs>
</svg>
